<svg width="83" height="12" viewBox="0 0 83 12" fill="none" xmlns="http://www.w3.org/2000/svg">
<path d="M0.428 10C0.334667 10 0.255333 9.96733 0.19 9.902C0.124667 9.83667 0.092 9.75733 0.092 9.664V0.55C0.092 0.447333 0.12 0.363333 0.176 0.298C0.241333 0.232666 0.325333 0.199999 0.428 0.199999H7.764C7.86667 0.199999 7.95067 0.232666 8.016 0.298C8.08133 0.363333 8.114 0.447333 8.114 0.55V9.664C8.114 9.76667 8.08133 9.85067 8.016 9.916C7.95067 9.972 7.86667 10 7.764 10H6.504C6.41067 10 6.33133 9.96733 6.266 9.902C6.20067 9.83667 6.168 9.75733 6.168 9.664V1.95H2.038V9.664C2.038 9.75733 2.00533 9.83667 1.94 9.902C1.884 9.96733 1.80467 10 1.702 10H0.428ZM13.3432 10.14C12.2512 10.14 11.4066 9.86 10.8092 9.3C10.2119 8.73067 9.88989 7.956 9.84322 6.976L9.82922 6.36L9.84322 5.744C9.88989 4.77333 10.2166 4.00333 10.8232 3.434C11.4299 2.86467 12.2699 2.58 13.3432 2.58C14.4166 2.58 15.2566 2.86467 15.8632 3.434C16.4699 4.00333 16.7966 4.77333 16.8432 5.744C16.8526 5.856 16.8572 6.06133 16.8572 6.36C16.8572 6.65867 16.8526 6.864 16.8432 6.976C16.7966 7.956 16.4746 8.73067 15.8772 9.3C15.2799 9.86 14.4352 10.14 13.3432 10.14ZM13.3432 8.754C13.8379 8.754 14.2206 8.6 14.4912 8.292C14.7619 7.97467 14.9112 7.51267 14.9392 6.906C14.9486 6.81267 14.9532 6.63067 14.9532 6.36C14.9532 6.08933 14.9486 5.90733 14.9392 5.814C14.9112 5.20733 14.7619 4.75 14.4912 4.442C14.2206 4.12467 13.8379 3.966 13.3432 3.966C12.8486 3.966 12.4659 4.12467 12.1952 4.442C11.9246 4.75 11.7752 5.20733 11.7472 5.814L11.7332 6.36L11.7472 6.906C11.7752 7.51267 11.9246 7.97467 12.1952 8.292C12.4659 8.6 12.8486 8.754 13.3432 8.754ZM18.1284 11.54C18.035 11.54 17.9557 11.5073 17.8904 11.442C17.825 11.386 17.7924 11.3067 17.7924 11.204V8.852C17.7924 8.75867 17.825 8.67933 17.8904 8.614C17.9557 8.54867 18.035 8.516 18.1284 8.516H18.2404C18.6044 8.516 18.8704 8.22667 19.0384 7.648C19.2064 7.06933 19.2904 6.16867 19.2904 4.946V3.056C19.2904 2.95333 19.323 2.874 19.3884 2.818C19.4537 2.75267 19.533 2.72 19.6264 2.72H24.6104C24.713 2.72 24.7924 2.75267 24.8484 2.818C24.9137 2.874 24.9464 2.95333 24.9464 3.056V8.502H25.5764C25.679 8.502 25.7584 8.53467 25.8144 8.6C25.8797 8.656 25.9124 8.73533 25.9124 8.838V11.204C25.9124 11.3067 25.8797 11.386 25.8144 11.442C25.7584 11.5073 25.679 11.54 25.5764 11.54H24.4284C24.3257 11.54 24.2417 11.5073 24.1764 11.442C24.111 11.3767 24.0784 11.2973 24.0784 11.204V10H19.6264V11.204C19.6264 11.3067 19.5937 11.386 19.5284 11.442C19.4724 11.5073 19.393 11.54 19.2904 11.54H18.1284ZM23.1264 8.502V4.204H21.0544V5.142C21.0544 6.74733 20.835 7.872 20.3964 8.516L23.1264 8.502ZM27.5354 10C27.4421 10 27.3627 9.96733 27.2974 9.902C27.2321 9.83667 27.1994 9.75733 27.1994 9.664V3.056C27.1994 2.96267 27.2321 2.88333 27.2974 2.818C27.3627 2.75267 27.4421 2.72 27.5354 2.72H33.5274C33.6301 2.72 33.7094 2.75267 33.7654 2.818C33.8307 2.874 33.8634 2.95333 33.8634 3.056V9.664C33.8634 9.75733 33.8307 9.83667 33.7654 9.902C33.7094 9.96733 33.6301 10 33.5274 10H32.3654C32.2721 10 32.1927 9.96733 32.1274 9.902C32.0621 9.83667 32.0294 9.75733 32.0294 9.664V4.204H29.0334V9.664C29.0334 9.75733 29.0007 9.83667 28.9354 9.902C28.8794 9.96733 28.8001 10 28.6974 10H27.5354ZM42.394 2.72C42.478 2.72 42.5527 2.75267 42.618 2.818C42.6833 2.874 42.716 2.944 42.716 3.028V9.664C42.716 9.75733 42.6833 9.83667 42.618 9.902C42.5527 9.96733 42.4733 10 42.38 10H41.218C41.1247 10 41.0453 9.96733 40.98 9.902C40.9147 9.83667 40.882 9.75733 40.882 9.664V5.17L37.522 9.776C37.438 9.92533 37.312 10 37.144 10H36.08C35.996 10 35.9213 9.972 35.856 9.916C35.7907 9.85067 35.758 9.77133 35.758 9.678V3.056C35.758 2.96267 35.7907 2.88333 35.856 2.818C35.9213 2.75267 36.0007 2.72 36.094 2.72H37.256C37.3587 2.72 37.438 2.75267 37.494 2.818C37.5593 2.874 37.592 2.95333 37.592 3.056V7.564L40.952 2.944C41.0547 2.79467 41.1807 2.72 41.33 2.72H42.394ZM47.6306 10.14C46.604 10.14 45.7826 9.85533 45.1666 9.286C44.56 8.71667 44.238 7.928 44.2006 6.92L44.1866 6.36L44.2006 5.8C44.238 4.792 44.56 4.00333 45.1666 3.434C45.7826 2.86467 46.604 2.58 47.6306 2.58C48.3586 2.58 48.9746 2.71067 49.4786 2.972C49.992 3.23333 50.37 3.55533 50.6126 3.938C50.8646 4.31133 51 4.666 51.0186 5.002C51.028 5.09533 50.9953 5.17467 50.9206 5.24C50.8553 5.30533 50.776 5.338 50.6826 5.338H49.4506C49.3573 5.338 49.2826 5.31933 49.2266 5.282C49.18 5.23533 49.1333 5.16067 49.0866 5.058C48.9466 4.694 48.76 4.43267 48.5266 4.274C48.3026 4.11533 48.0133 4.036 47.6586 4.036C47.1826 4.036 46.8093 4.19 46.5386 4.498C46.268 4.79667 46.1233 5.254 46.1046 5.87L46.0906 6.388L46.1046 6.85C46.142 8.07267 46.66 8.684 47.6586 8.684C48.0226 8.684 48.3166 8.60467 48.5406 8.446C48.7646 8.28733 48.9466 8.026 49.0866 7.662C49.1333 7.55933 49.18 7.48933 49.2266 7.452C49.2826 7.40533 49.3573 7.382 49.4506 7.382H50.6826C50.776 7.382 50.8553 7.41467 50.9206 7.48C50.9953 7.54533 51.028 7.62467 51.0186 7.718C51 8.04467 50.8693 8.39467 50.6266 8.768C50.384 9.14133 50.0106 9.46333 49.5066 9.734C49.0026 10.0047 48.3773 10.14 47.6306 10.14ZM54.5927 10.14C54.1167 10.14 53.678 10.0467 53.2767 9.86C52.8847 9.664 52.572 9.40267 52.3387 9.076C52.1147 8.74933 52.0027 8.39 52.0027 7.998C52.0027 7.36333 52.2594 6.85 52.7727 6.458C53.286 6.066 53.9907 5.8 54.8867 5.66L56.8047 5.38V5.086C56.8047 4.67533 56.702 4.36733 56.4967 4.162C56.2914 3.95667 55.96 3.854 55.5027 3.854C55.1947 3.854 54.9427 3.91467 54.7467 4.036C54.56 4.148 54.4107 4.26 54.2987 4.372C54.1867 4.49333 54.112 4.57267 54.0747 4.61C54.0374 4.722 53.9674 4.778 53.8647 4.778H52.7867C52.7027 4.778 52.628 4.75 52.5627 4.694C52.5067 4.638 52.4787 4.56333 52.4787 4.47C52.488 4.23667 52.6 3.97067 52.8147 3.672C53.0387 3.37333 53.3794 3.11667 53.8367 2.902C54.294 2.68733 54.854 2.58 55.5167 2.58C56.618 2.58 57.4207 2.82733 57.9247 3.322C58.4287 3.81667 58.6807 4.46533 58.6807 5.268V9.664C58.6807 9.75733 58.648 9.83667 58.5827 9.902C58.5267 9.96733 58.4474 10 58.3447 10H57.2107C57.1174 10 57.038 9.96733 56.9727 9.902C56.9074 9.83667 56.8747 9.75733 56.8747 9.664V9.118C56.6694 9.41667 56.3754 9.664 55.9927 9.86C55.6194 10.0467 55.1527 10.14 54.5927 10.14ZM55.0687 8.81C55.582 8.81 56.002 8.642 56.3287 8.306C56.6554 7.97 56.8187 7.48 56.8187 6.836V6.542L55.4187 6.766C54.8774 6.85 54.4667 6.98533 54.1867 7.172C53.916 7.35867 53.7807 7.58733 53.7807 7.858C53.7807 8.15667 53.9067 8.39 54.1587 8.558C54.4107 8.726 54.714 8.81 55.0687 8.81ZM62.7027 10C62.6094 10 62.5301 9.96733 62.4647 9.902C62.3994 9.83667 62.3667 9.75733 62.3667 9.664V4.204H60.0847C59.9914 4.204 59.9121 4.17133 59.8467 4.106C59.7814 4.04067 59.7487 3.95667 59.7487 3.854V3.056C59.7487 2.95333 59.7814 2.874 59.8467 2.818C59.9121 2.75267 59.9914 2.72 60.0847 2.72H66.4407C66.5434 2.72 66.6274 2.75267 66.6927 2.818C66.7581 2.88333 66.7907 2.96267 66.7907 3.056V3.854C66.7907 3.94733 66.7581 4.03133 66.6927 4.106C66.6274 4.17133 66.5434 4.204 66.4407 4.204H64.1727V9.664C64.1727 9.75733 64.1401 9.83667 64.0747 9.902C64.0187 9.96733 63.9394 10 63.8367 10H62.7027ZM71.0506 10.14C70.0239 10.14 69.2026 9.85533 68.5866 9.286C67.9799 8.71667 67.6579 7.928 67.6206 6.92L67.6066 6.36L67.6206 5.8C67.6579 4.792 67.9799 4.00333 68.5866 3.434C69.2026 2.86467 70.0239 2.58 71.0506 2.58C71.7786 2.58 72.3946 2.71067 72.8986 2.972C73.4119 3.23333 73.7899 3.55533 74.0326 3.938C74.2846 4.31133 74.4199 4.666 74.4386 5.002C74.4479 5.09533 74.4152 5.17467 74.3406 5.24C74.2752 5.30533 74.1959 5.338 74.1026 5.338H72.8706C72.7772 5.338 72.7026 5.31933 72.6466 5.282C72.5999 5.23533 72.5532 5.16067 72.5066 5.058C72.3666 4.694 72.1799 4.43267 71.9466 4.274C71.7226 4.11533 71.4332 4.036 71.0786 4.036C70.6026 4.036 70.2292 4.19 69.9586 4.498C69.6879 4.79667 69.5432 5.254 69.5246 5.87L69.5106 6.388L69.5246 6.85C69.5619 8.07267 70.0799 8.684 71.0786 8.684C71.4426 8.684 71.7366 8.60467 71.9606 8.446C72.1846 8.28733 72.3666 8.026 72.5066 7.662C72.5532 7.55933 72.5999 7.48933 72.6466 7.452C72.7026 7.40533 72.7772 7.382 72.8706 7.382H74.1026C74.1959 7.382 74.2752 7.41467 74.3406 7.48C74.4152 7.54533 74.4479 7.62467 74.4386 7.718C74.4199 8.04467 74.2892 8.39467 74.0466 8.768C73.8039 9.14133 73.4306 9.46333 72.9266 9.734C72.4226 10.0047 71.7972 10.14 71.0506 10.14ZM81.7086 2.72C81.8113 2.72 81.8906 2.75267 81.9466 2.818C82.0119 2.874 82.0446 2.95333 82.0446 3.056V9.664C82.0446 9.75733 82.0119 9.83667 81.9466 9.902C81.8906 9.96733 81.8113 10 81.7086 10H80.5186C80.4253 10 80.3459 9.96733 80.2806 9.902C80.2153 9.83667 80.1826 9.75733 80.1826 9.664V7.522H78.9366L77.5506 9.79C77.4666 9.93 77.3499 10 77.2006 10H76.0386C75.9546 10 75.8846 9.972 75.8286 9.916C75.7726 9.86 75.7446 9.79467 75.7446 9.72C75.7446 9.636 75.7726 9.56133 75.8286 9.496L77.2986 7.186C76.8599 6.99933 76.5286 6.72867 76.3046 6.374C76.0806 6.01 75.9686 5.58067 75.9686 5.086C75.9686 4.302 76.2113 3.714 76.6966 3.322C77.1913 2.92067 77.9099 2.72 78.8526 2.72H81.7086ZM80.2106 4.05H78.8946C78.4559 4.05 78.1339 4.12933 77.9286 4.288C77.7326 4.44667 77.6346 4.71267 77.6346 5.086C77.6346 5.43133 77.7326 5.702 77.9286 5.898C78.1246 6.094 78.4186 6.192 78.8106 6.192H80.2106V4.05Z" fill="#295093"/>
</svg>
